<svg id="Layer_1" data-name="Layer 1" xmlns="http://www.w3.org/2000/svg" width="128" height="128" viewBox="0 0 128 128">
  <title>Container Engine</title>
  <g>
    <path d="M126.47,58.12l-26.3-45.74A11.56,11.56,0,0,0,90.31,6.5H37.7a11.55,11.55,0,0,0-9.86,5.88L1.53,58a11.48,11.48,0,0,0,0,11.44l26.3,46a11.77,11.77,0,0,0,9.86,6.09H90.3a11.73,11.73,0,0,0,9.87-6.06l26.3-45.74A11.73,11.73,0,0,0,126.47,58.12Z" style="fill: #4285f4"/>
    <path d="M89.63,48.44,64,37,39.5,50.31l-1,29.33L80.33,121.5h10a11.73,11.73,0,0,0,9.87-6.06l20.61-35.85Z" style="opacity: 0.070000000298023;isolation: isolate"/>
    <g id="art">
      <path d="M89,48,65.35,34.32a2.72,2.72,0,0,0-2.7,0L39,48a2.7,2.7,0,0,0-1.35,2.34V77.67A2.69,2.69,0,0,0,39,80L62.65,93.68a2.7,2.7,0,0,0,2.7,0L89,80a2.69,2.69,0,0,0,1.35-2.34V50.34A2.7,2.7,0,0,0,89,48ZM85.78,75.05l-8.26-4.77V57.72l-12.2,7V78.85L76.2,72.57l8.26,4.77L64,89.15,43.54,77.34l8.26-4.77,10.88,6.28V64.76l-12.2-7V70.28l-8.26,4.77V51.43L62.68,39.62v9.53L51.8,55.44l12.2,7,12.2-7L65.32,49.15V39.62L85.78,51.43V75.05Z" style="fill: #fff"/>
    </g>
  </g>
</svg>
